<?xml version="1.0" encoding="utf-8"?>
<!-- Generator: Adobe Illustrator 23.0.3, SVG Export Plug-In . SVG Version: 6.00 Build 0)  -->
<svg version="1.1" id="Layer_1" xmlns="http://www.w3.org/2000/svg" xmlns:xlink="http://www.w3.org/1999/xlink" x="0px" y="0px"
	 viewBox="0 0 1280 1024" style="enable-background:new 0 0 1280 1024;" xml:space="preserve">
<g id="XMLID_5024_">
	<path id="XMLID_5075_" d="M130.58,625.07H8.8c-4.8,0-8.72-3.92-8.72-8.72l0,0c0-4.8,3.93-8.72,8.72-8.72h121.78
		c4.8,0,8.72,3.93,8.72,8.72l0,0C139.3,621.14,135.38,625.07,130.58,625.07z"/>
	<path id="XMLID_5074_" d="M33.72,590.3H16.36c-4.8,0-8.72-3.92-8.72-8.72v0c0-4.8,3.93-8.72,8.72-8.72h17.36
		c4.8,0,8.72,3.92,8.72,8.72v0C42.44,586.38,38.52,590.3,33.72,590.3z"/>
	<path id="XMLID_5073_" d="M172.95,590.3h-17.36c-4.8,0-8.72-3.92-8.72-8.72v0c0-4.8,3.93-8.72,8.72-8.72h17.36
		c4.8,0,8.72,3.92,8.72,8.72v0C181.67,586.38,177.75,590.3,172.95,590.3z"/>
	<path id="XMLID_5072_" d="M41.28,555.5H23.91c-4.8,0-8.72-3.93-8.72-8.72v0c0-4.8,3.93-8.72,8.72-8.72h17.36
		c4.8,0,8.72,3.92,8.72,8.72v0C50,551.57,46.07,555.5,41.28,555.5z"/>
	<path id="XMLID_5071_" d="M48.84,520.69H31.47c-4.8,0-8.72-3.92-8.72-8.72v0c0-4.8,3.93-8.72,8.72-8.72h17.36
		c4.8,0,8.72,3.93,8.72,8.72v0C57.56,516.76,53.63,520.69,48.84,520.69z"/>
	<path id="XMLID_5070_" d="M180.51,555.5h-17.36c-4.8,0-8.72-3.92-8.72-8.72v0c0-4.8,3.93-8.72,8.72-8.72h17.36
		c4.8,0,8.72,3.92,8.72,8.72v0C189.23,551.57,185.3,555.5,180.51,555.5z"/>
	<path id="XMLID_5069_" d="M188.07,520.69H170.7c-4.8,0-8.72-3.92-8.72-8.72v0c0-4.8,3.93-8.72,8.72-8.72h17.36
		c4.8,0,8.72,3.93,8.72,8.72v0C196.79,516.76,192.86,520.69,188.07,520.69z"/>
	<path id="XMLID_5068_" d="M160.82,485.88H39.03c-4.8,0-8.72-3.93-8.72-8.72l0,0c0-4.8,3.93-8.72,8.72-8.72h121.78
		c4.8,0,8.72,3.93,8.72,8.72l0,0C169.54,481.96,165.61,485.88,160.82,485.88z"/>
	<path id="XMLID_5067_" d="M63.95,451.07H46.59c-4.8,0-8.72-3.93-8.72-8.72l0,0c0-4.8,3.93-8.72,8.72-8.72h17.36
		c4.8,0,8.72,3.93,8.72,8.72l0,0C72.67,447.15,68.75,451.07,63.95,451.07z"/>
	<path id="XMLID_5066_" d="M71.51,416.27H54.15c-4.8,0-8.72-3.92-8.72-8.72v0c0-4.8,3.93-8.72,8.72-8.72h17.36
		c4.8,0,8.72,3.93,8.72,8.72v0C80.23,412.34,76.31,416.27,71.51,416.27z"/>
	<path id="XMLID_5065_" d="M245.83,590.3h-17.36c-4.8,0-8.72-3.92-8.72-8.72v0c0-4.8,3.93-8.72,8.72-8.72h17.36
		c4.8,0,8.72,3.92,8.72,8.72v0C254.55,586.38,250.62,590.3,245.83,590.3z"/>
	<path id="XMLID_5064_" d="M377.5,625.07H255.71c-4.8,0-8.72-3.92-8.72-8.72l0,0c0-4.8,3.93-8.72,8.72-8.72H377.5
		c4.8,0,8.72,3.93,8.72,8.72l0,0C386.22,621.14,382.29,625.07,377.5,625.07z"/>
	<path id="XMLID_5063_" d="M392.61,555.5H270.83c-4.8,0-8.72-3.93-8.72-8.72v0c0-4.8,3.93-8.72,8.72-8.72h121.78
		c4.8,0,8.72,3.92,8.72,8.72v0C401.34,551.57,397.41,555.5,392.61,555.5z"/>
	<path id="XMLID_5062_" d="M400.17,520.69h-17.36c-4.8,0-8.72-3.92-8.72-8.72v0c0-4.8,3.93-8.72,8.72-8.72h17.36
		c4.8,0,8.72,3.93,8.72,8.72v0C408.89,516.76,404.97,520.69,400.17,520.69z"/>
	<path id="XMLID_5061_" d="M372.92,485.88h-86.98c-4.8,0-8.72-3.93-8.72-8.72v0c0-4.8,3.93-8.72,8.72-8.72h86.98
		c4.8,0,8.72,3.93,8.72,8.72v0C381.65,481.96,377.72,485.88,372.92,485.88z"/>
	<path id="XMLID_5060_" d="M385.06,590.3h-17.36c-4.8,0-8.72-3.92-8.72-8.72v0c0-4.8,3.92-8.72,8.72-8.72h17.36
		c4.8,0,8.72,3.92,8.72,8.72v0C393.78,586.38,389.85,590.3,385.06,590.3z"/>
	<path id="XMLID_5059_" d="M450.38,625.07h-17.36c-4.8,0-8.72-3.92-8.72-8.72l0,0c0-4.8,3.93-8.72,8.72-8.72h17.36
		c4.8,0,8.72,3.93,8.72,8.72l0,0C459.1,621.14,455.17,625.07,450.38,625.07z"/>
	<path id="XMLID_5058_" d="M457.93,590.36h-17.36c-4.8,0-8.72-3.93-8.72-8.72l0,0c0-4.8,3.93-8.72,8.72-8.72h17.36
		c4.8,0,8.72,3.93,8.72,8.72l0,0C466.66,586.44,462.73,590.36,457.93,590.36z"/>
	<path id="XMLID_5057_" d="M465.49,555.5h-17.36c-4.8,0-8.72-3.93-8.72-8.72v0c0-4.8,3.93-8.72,8.72-8.72h17.36
		c4.8,0,8.72,3.92,8.72,8.72v0C474.21,551.57,470.29,555.5,465.49,555.5z"/>
	<path id="XMLID_5056_" d="M473.05,520.69h-17.36c-4.8,0-8.72-3.92-8.72-8.72v0c0-4.8,3.93-8.72,8.72-8.72h17.36
		c4.8,0,8.72,3.92,8.72,8.72v0C481.77,516.76,477.85,520.69,473.05,520.69z"/>
	<path id="XMLID_5055_" d="M585.03,485.88H463.25c-4.8,0-8.72-3.93-8.72-8.72v0c0-4.8,3.93-8.72,8.72-8.72h121.79
		c4.8,0,8.72,3.93,8.72,8.72v0C593.75,481.96,589.83,485.88,585.03,485.88z"/>
	<path id="XMLID_5054_" d="M612.28,520.69h-17.36c-4.8,0-8.72-3.92-8.72-8.72v0c0-4.8,3.92-8.72,8.72-8.72h17.36
		c4.8,0,8.72,3.92,8.72,8.72v0C621,516.76,617.08,520.69,612.28,520.69z"/>
	<path id="XMLID_5053_" d="M662.48,625.11h-17.36c-4.8,0-8.72-3.93-8.72-8.72l0,0c0-4.8,3.92-8.72,8.72-8.72h17.36
		c4.8,0,8.72,3.93,8.72,8.72l0,0C671.21,621.19,667.28,625.11,662.48,625.11z"/>
	<path id="XMLID_5052_" d="M670.04,590.3h-17.36c-4.8,0-8.72-3.92-8.72-8.72v0c0-4.8,3.92-8.72,8.72-8.72h17.36
		c4.8,0,8.72,3.92,8.72,8.72v0C678.76,586.38,674.84,590.3,670.04,590.3z"/>
	<path id="XMLID_5051_" d="M747.21,555.5h-86.98c-4.8,0-8.72-3.93-8.72-8.72l0,0c0-4.8,3.93-8.72,8.72-8.72h86.98
		c4.8,0,8.72,3.93,8.72,8.72l0,0C755.94,551.57,752.01,555.5,747.21,555.5z"/>
	<path id="XMLID_5050_" d="M685.16,520.69H667.8c-4.8,0-8.72-3.92-8.72-8.72v0c0-4.8,3.92-8.72,8.72-8.72h17.36
		c4.8,0,8.72,3.92,8.72,8.72v0C693.88,516.76,689.96,520.69,685.16,520.69z"/>
	<path id="XMLID_5049_" d="M692.72,485.88h-17.36c-4.8,0-8.72-3.93-8.72-8.72v0c0-4.8,3.92-8.72,8.72-8.72h17.36
		c4.8,0,8.72,3.93,8.72,8.72v0C701.44,481.96,697.51,485.88,692.72,485.88z"/>
	<path id="XMLID_5048_" d="M700.28,451.07h-17.36c-4.8,0-8.72-3.93-8.72-8.72l0,0c0-4.8,3.92-8.72,8.72-8.72h17.36
		c4.8,0,8.72,3.93,8.72,8.72l0,0C709,447.15,705.07,451.07,700.28,451.07z"/>
	<path id="XMLID_5047_" d="M707.83,416.27h-17.36c-4.8,0-8.72-3.92-8.72-8.72v0c0-4.8,3.93-8.72,8.72-8.72h17.36
		c4.8,0,8.72,3.93,8.72,8.72v0C716.56,412.34,712.63,416.27,707.83,416.27z"/>
	<path id="XMLID_5046_" d="M789.58,520.69h-17.36c-4.8,0-8.72-3.92-8.72-8.72v0c0-4.8,3.93-8.72,8.72-8.72h17.36
		c4.8,0,8.72,3.92,8.72,8.72v0C798.3,516.76,794.38,520.69,789.58,520.69z"/>
	<path id="XMLID_5045_" d="M831.95,485.63h-17.36c-4.8,0-8.72-3.93-8.72-8.72v0c0-4.8,3.93-8.72,8.72-8.72h17.36
		c4.8,0,8.72,3.93,8.72,8.72v0C840.67,481.7,836.74,485.63,831.95,485.63z"/>
	<path id="XMLID_5044_" d="M774.46,590.3H757.1c-4.8,0-8.72-3.92-8.72-8.72v0c0-4.8,3.92-8.72,8.72-8.72h17.36
		c4.8,0,8.72,3.92,8.72,8.72v0C783.19,586.38,779.26,590.3,774.46,590.3z"/>
	<path id="XMLID_5043_" d="M801.71,625.07h-17.36c-4.8,0-8.72-3.92-8.72-8.72l0,0c0-4.8,3.93-8.72,8.72-8.72h17.36
		c4.8,0,8.72,3.93,8.72,8.72l0,0C810.43,621.14,806.51,625.07,801.71,625.07z"/>
	<path id="XMLID_5042_" d="M1009.25,485.63h-86.98c-4.8,0-8.72-3.93-8.72-8.72v0c0-4.8,3.92-8.72,8.72-8.72h86.98
		c4.8,0,8.72,3.93,8.72,8.72v0C1017.97,481.7,1014.04,485.63,1009.25,485.63z"/>
	<path id="XMLID_5041_" d="M979.01,625.11h-86.98c-4.8,0-8.72-3.93-8.72-8.72l0,0c0-4.8,3.93-8.72,8.72-8.72h86.98
		c4.8,0,8.72,3.93,8.72,8.72l0,0C987.74,621.19,983.81,625.11,979.01,625.11z"/>
	<path id="XMLID_5040_" d="M882.15,590.3h-17.36c-4.8,0-8.72-3.92-8.72-8.72v0c0-4.8,3.93-8.72,8.72-8.72h17.36
		c4.8,0,8.72,3.92,8.72,8.72v0C890.87,586.38,886.95,590.3,882.15,590.3z"/>
	<path id="XMLID_5039_" d="M889.71,555.5h-17.36c-4.8,0-8.72-3.93-8.72-8.72v0c0-4.8,3.93-8.72,8.72-8.72h17.36
		c4.8,0,8.72,3.92,8.72,8.72v0C898.43,551.57,894.5,555.5,889.71,555.5z"/>
	<path id="XMLID_5038_" d="M897.27,520.69H879.9c-4.8,0-8.72-3.92-8.72-8.72l0,0c0-4.8,3.92-8.72,8.72-8.72h17.36
		c4.8,0,8.72,3.93,8.72,8.72l0,0C905.99,516.76,902.06,520.69,897.27,520.69z"/>
	<path id="XMLID_5037_" d="M1036.5,520.69h-17.36c-4.8,0-8.72-3.92-8.72-8.72v0c0-4.8,3.92-8.72,8.72-8.72h17.36
		c4.8,0,8.72,3.92,8.72,8.72v0C1045.22,516.76,1041.29,520.69,1036.5,520.69z"/>
	<path id="XMLID_5036_" d="M1028.94,555.5h-17.36c-4.8,0-8.72-3.92-8.72-8.72l0,0c0-4.8,3.93-8.72,8.72-8.72h17.36
		c4.8,0,8.72,3.93,8.72,8.72l0,0C1037.66,551.57,1033.73,555.5,1028.94,555.5z"/>
	<path id="XMLID_5035_" d="M1021.38,590.3h-17.36c-4.8,0-8.72-3.92-8.72-8.72v0c0-4.8,3.93-8.72,8.72-8.72h17.36
		c4.8,0,8.72,3.92,8.72,8.72v0C1030.1,586.38,1026.18,590.3,1021.38,590.3z"/>
	<path id="XMLID_5034_" d="M1109.37,520.69h-17.36c-4.8,0-8.72-3.92-8.72-8.72v0c0-4.8,3.93-8.72,8.72-8.72h17.36
		c4.8,0,8.72,3.92,8.72,8.72v0C1118.1,516.76,1114.17,520.69,1109.37,520.69z"/>
	<path id="XMLID_5033_" d="M1101.81,555.5h-17.36c-4.8,0-8.72-3.93-8.72-8.72l0,0c0-4.8,3.93-8.72,8.72-8.72h17.36
		c4.8,0,8.72,3.93,8.72,8.72l0,0C1110.54,551.57,1106.61,555.5,1101.81,555.5z"/>
	<path id="XMLID_5032_" d="M1094.26,590.3h-17.36c-4.8,0-8.72-3.92-8.72-8.72v0c0-4.8,3.92-8.72,8.72-8.72h17.36
		c4.8,0,8.72,3.92,8.72,8.72v0C1102.98,586.38,1099.05,590.3,1094.26,590.3z"/>
	<path id="XMLID_5031_" d="M1225.93,625.07h-121.79c-4.8,0-8.72-3.93-8.72-8.72l0,0c0-4.8,3.92-8.72,8.72-8.72h121.79
		c4.8,0,8.72,3.93,8.72,8.72l0,0C1234.65,621.14,1230.72,625.07,1225.93,625.07z"/>
	<path id="XMLID_5030_" d="M1256.16,485.88h-121.78c-4.8,0-8.72-3.93-8.72-8.72v0c0-4.8,3.93-8.72,8.72-8.72h121.78
		c4.8,0,8.72,3.93,8.72,8.72v0C1264.88,481.96,1260.96,485.88,1256.16,485.88z"/>
	<path id="XMLID_5029_" d="M1248.6,520.69h-17.36c-4.8,0-8.72-3.92-8.72-8.72v0c0-4.8,3.93-8.72,8.72-8.72h17.36
		c4.8,0,8.72,3.92,8.72,8.72v0C1257.32,516.76,1253.4,520.69,1248.6,520.69z"/>
	<path id="XMLID_5028_" d="M1241.04,555.5h-17.36c-4.8,0-8.72-3.93-8.72-8.72l0,0c0-4.8,3.92-8.72,8.72-8.72h17.36
		c4.8,0,8.72,3.93,8.72,8.72l0,0C1249.77,551.57,1245.84,555.5,1241.04,555.5z"/>
	<path id="XMLID_5027_" d="M1233.49,590.3h-17.36c-4.8,0-8.72-3.92-8.72-8.72v0c0-4.8,3.93-8.72,8.72-8.72h17.36
		c4.8,0,8.72,3.92,8.72,8.72v0C1242.21,586.38,1238.28,590.3,1233.49,590.3z"/>
	<path id="XMLID_5026_" d="M1263.72,451.07h-17.36c-4.8,0-8.72-3.93-8.72-8.72l0,0c0-4.8,3.93-8.72,8.72-8.72h17.36
		c4.8,0,8.72,3.93,8.72,8.72l0,0C1272.44,447.15,1268.52,451.07,1263.72,451.07z"/>
	<path id="XMLID_5025_" d="M1271.28,416.27h-17.36c-4.8,0-8.72-3.92-8.72-8.72v0c0-4.8,3.93-8.72,8.72-8.72h17.36
		c4.8,0,8.72,3.93,8.72,8.72v0C1280,412.34,1276.07,416.27,1271.28,416.27z"/>
</g>
</svg>
